<?xml version="1.0" encoding="UTF-8" standalone="no"?>
<!DOCTYPE svg PUBLIC "-//W3C//DTD SVG 1.1//EN" "http://www.w3.org/Graphics/SVG/1.1/DTD/svg11.dtd">
<svg width="100%" height="100%" viewBox="0 0 913 331" version="1.1" xmlns="http://www.w3.org/2000/svg" xmlns:xlink="http://www.w3.org/1999/xlink" xml:space="preserve" xmlns:serif="http://www.serif.com/" style="fill-rule:evenodd;clip-rule:evenodd;stroke-linejoin:round;stroke-miterlimit:2;">
    <g transform="matrix(1,0,0,1,-347.016,-217.108)">
        <g transform="matrix(4.33864,0,0,4.33864,-1123.83,-1503.53)">
            <g transform="matrix(50,0,0,50,339.011,450.785)">
                <path d="M0.073,-1.077L0.077,-1.077C0.078,-1.077 0.08,-1.075 0.082,-1.072L0.082,-0.69C0.086,-0.686 0.087,-0.683 0.087,-0.68L0.087,-0.676C0.087,-0.673 0.086,-0.669 0.082,-0.666C0.083,-0.666 0.085,-0.665 0.09,-0.664C0.171,-0.663 0.212,-0.659 0.212,-0.653C0.217,-0.648 0.227,-0.615 0.244,-0.554L0.329,-0.265C0.331,-0.263 0.334,-0.26 0.337,-0.257C0.345,-0.257 0.353,-0.272 0.362,-0.301C0.439,-0.506 0.481,-0.618 0.489,-0.636C0.497,-0.642 0.503,-0.645 0.505,-0.645L0.594,-0.641L0.593,-0.647L0.593,-0.649C0.594,-0.657 0.597,-0.662 0.602,-0.662C0.602,-0.68 0.595,-0.696 0.582,-0.71C0.58,-0.707 0.577,-0.705 0.572,-0.705L0.564,-0.705C0.558,-0.709 0.554,-0.714 0.554,-0.719L0.554,-0.722C0.554,-0.729 0.559,-0.734 0.568,-0.736L0.571,-0.736C0.579,-0.736 0.584,-0.731 0.586,-0.719C0.591,-0.719 0.596,-0.713 0.602,-0.7L0.603,-0.7L0.603,-0.704C0.603,-0.723 0.603,-0.846 0.602,-1.073L0.607,-1.077L0.611,-1.077L0.616,-1.073C0.617,-0.946 0.617,-0.879 0.617,-0.872C0.617,-0.84 0.618,-0.769 0.619,-0.659C0.622,-0.658 0.624,-0.655 0.624,-0.65L0.624,-0.646L0.623,-0.64C0.654,-0.639 0.67,-0.637 0.67,-0.632C0.674,-0.629 0.676,-0.624 0.676,-0.619C0.66,-0.246 0.651,-0.054 0.648,-0.043C0.642,-0.037 0.636,-0.034 0.63,-0.034C0.563,-0.034 0.529,-0.039 0.529,-0.05L0.527,-0.055L0.543,-0.397C0.542,-0.417 0.54,-0.427 0.538,-0.427L0.534,-0.427C0.525,-0.421 0.511,-0.391 0.493,-0.338C0.424,-0.168 0.386,-0.074 0.378,-0.057C0.372,-0.05 0.364,-0.047 0.354,-0.047C0.301,-0.047 0.274,-0.051 0.274,-0.059C0.267,-0.07 0.254,-0.111 0.235,-0.183C0.231,-0.193 0.208,-0.268 0.167,-0.409C0.159,-0.43 0.153,-0.441 0.15,-0.441L0.149,-0.441C0.141,-0.441 0.136,-0.388 0.133,-0.283L0.122,-0.07C0.117,-0.063 0.11,-0.059 0.102,-0.059C0.035,-0.06 0.002,-0.064 0.002,-0.071C0.001,-0.079 0,-0.083 0,-0.085C0.016,-0.455 0.026,-0.645 0.028,-0.655C0.032,-0.661 0.038,-0.665 0.046,-0.667C0.047,-0.667 0.047,-0.667 0.047,-0.666L0.054,-0.667L0.062,-0.666C0.058,-0.669 0.057,-0.673 0.057,-0.678C0.058,-0.687 0.061,-0.691 0.065,-0.691C0.065,-0.709 0.059,-0.725 0.045,-0.74C0.044,-0.736 0.041,-0.735 0.036,-0.735L0.028,-0.735C0.021,-0.738 0.018,-0.743 0.018,-0.749L0.018,-0.751C0.018,-0.759 0.023,-0.763 0.032,-0.766L0.035,-0.766C0.042,-0.766 0.048,-0.76 0.05,-0.749C0.055,-0.749 0.06,-0.742 0.067,-0.727L0.068,-0.727L0.068,-1.072C0.068,-1.073 0.07,-1.075 0.073,-1.077ZM0.054,-0.605C0.056,-0.591 0.064,-0.584 0.077,-0.584C0.087,-0.584 0.093,-0.591 0.096,-0.605C0.096,-0.613 0.092,-0.619 0.084,-0.625L0.082,-0.625C0.082,-0.619 0.08,-0.616 0.077,-0.616L0.073,-0.616C0.071,-0.616 0.069,-0.619 0.067,-0.625C0.058,-0.62 0.054,-0.613 0.054,-0.605ZM0.59,-0.576C0.593,-0.562 0.601,-0.555 0.613,-0.555C0.623,-0.555 0.63,-0.562 0.633,-0.576C0.633,-0.583 0.629,-0.59 0.621,-0.595L0.62,-0.595C0.62,-0.591 0.618,-0.589 0.613,-0.586C0.608,-0.586 0.605,-0.589 0.603,-0.595C0.595,-0.59 0.59,-0.584 0.59,-0.576Z" style="fill-rule:nonzero;"/>
            </g>
        </g>
        <g transform="matrix(4.33864,0,0,4.33864,-1123.83,-1503.53)">
            <g transform="matrix(50,0,0,50,373.386,450.785)">
                <path d="M0.237,-1.082L0.241,-1.082C0.242,-1.082 0.244,-1.08 0.246,-1.077L0.246,-0.511L0.248,-0.511C0.248,-0.516 0.253,-0.524 0.265,-0.534C0.267,-0.545 0.273,-0.55 0.281,-0.55L0.282,-0.55C0.291,-0.55 0.296,-0.544 0.298,-0.533C0.295,-0.523 0.29,-0.518 0.283,-0.518L0.279,-0.518C0.276,-0.518 0.272,-0.52 0.269,-0.523C0.256,-0.509 0.249,-0.493 0.249,-0.477L0.249,-0.474C0.254,-0.469 0.257,-0.464 0.257,-0.461L0.257,-0.457C0.257,-0.451 0.253,-0.446 0.246,-0.443L0.246,-0.43C0.304,-0.43 0.354,-0.411 0.396,-0.373C0.427,-0.34 0.448,-0.306 0.458,-0.272C0.466,-0.244 0.47,-0.222 0.47,-0.204C0.471,-0.188 0.471,-0.177 0.471,-0.172C0.471,-0.094 0.437,-0.033 0.367,0.012C0.331,0.031 0.305,0.041 0.289,0.041C0.281,0.044 0.263,0.047 0.235,0.049C0.132,0.049 0.06,0.002 0.02,-0.091C0.007,-0.127 0,-0.165 0,-0.205L0,-0.213C0,-0.254 0.014,-0.295 0.041,-0.337C0.073,-0.374 0.094,-0.393 0.104,-0.393C0.146,-0.418 0.188,-0.43 0.231,-0.43L0.231,-0.445C0.227,-0.449 0.225,-0.453 0.225,-0.457L0.225,-0.459C0.225,-0.463 0.227,-0.468 0.231,-0.473L0.231,-1.077C0.231,-1.078 0.233,-1.08 0.237,-1.082ZM0.217,-0.386C0.217,-0.374 0.225,-0.366 0.241,-0.364C0.254,-0.366 0.261,-0.374 0.261,-0.388C0.257,-0.4 0.253,-0.406 0.246,-0.406L0.246,-0.399C0.246,-0.398 0.244,-0.396 0.241,-0.394L0.237,-0.394C0.236,-0.394 0.234,-0.396 0.231,-0.399L0.231,-0.406L0.23,-0.406C0.221,-0.401 0.217,-0.395 0.217,-0.386ZM0.124,-0.209C0.124,-0.149 0.141,-0.101 0.176,-0.067C0.196,-0.053 0.215,-0.045 0.231,-0.045L0.248,-0.045C0.274,-0.045 0.299,-0.058 0.323,-0.084C0.339,-0.105 0.347,-0.134 0.347,-0.169C0.347,-0.249 0.322,-0.302 0.273,-0.329C0.262,-0.333 0.248,-0.335 0.231,-0.337C0.209,-0.337 0.185,-0.328 0.161,-0.312C0.136,-0.289 0.124,-0.255 0.124,-0.209Z" style="fill-rule:nonzero;"/>
            </g>
        </g>
        <g transform="matrix(4.33864,0,0,4.33864,-1123.83,-1503.53)">
            <g transform="matrix(50,0,0,50,397.238,450.785)">
                <path d="M0.255,-1.08L0.259,-1.08C0.26,-1.08 0.262,-1.078 0.264,-1.075L0.264,-0.554L0.265,-0.554C0.265,-0.559 0.27,-0.566 0.281,-0.575C0.284,-0.585 0.289,-0.59 0.296,-0.59L0.298,-0.59C0.306,-0.59 0.311,-0.585 0.313,-0.574C0.31,-0.565 0.305,-0.56 0.299,-0.56L0.295,-0.56C0.292,-0.56 0.289,-0.562 0.285,-0.565C0.272,-0.551 0.266,-0.537 0.266,-0.521L0.266,-0.519C0.271,-0.514 0.274,-0.509 0.274,-0.506L0.274,-0.502C0.274,-0.499 0.271,-0.495 0.266,-0.49L0.268,-0.49C0.331,-0.49 0.374,-0.463 0.396,-0.409C0.406,-0.396 0.415,-0.332 0.421,-0.22C0.429,-0.143 0.433,-0.094 0.433,-0.075C0.433,-0.062 0.413,-0.056 0.374,-0.056C0.374,-0.054 0.361,-0.053 0.335,-0.053L0.334,-0.053C0.32,-0.053 0.313,-0.075 0.313,-0.119C0.301,-0.28 0.29,-0.361 0.28,-0.361C0.267,-0.382 0.25,-0.393 0.229,-0.393L0.213,-0.393C0.187,-0.393 0.165,-0.38 0.145,-0.356C0.137,-0.343 0.132,-0.323 0.132,-0.298L0.132,-0.293C0.132,-0.267 0.138,-0.188 0.149,-0.057C0.149,-0.042 0.137,-0.034 0.113,-0.034C0.096,-0.032 0.075,-0.03 0.052,-0.029C0.036,-0.029 0.029,-0.047 0.029,-0.081C0.029,-0.086 0.019,-0.204 0,-0.437C0,-0.452 0.015,-0.46 0.044,-0.46C0.064,-0.462 0.08,-0.463 0.092,-0.463L0.093,-0.463C0.104,-0.463 0.111,-0.453 0.113,-0.433C0.116,-0.429 0.12,-0.427 0.124,-0.427C0.127,-0.427 0.137,-0.435 0.153,-0.452C0.182,-0.473 0.204,-0.483 0.221,-0.483C0.23,-0.487 0.239,-0.488 0.25,-0.488L0.25,-0.491C0.246,-0.495 0.244,-0.499 0.244,-0.502L0.244,-0.505C0.244,-0.508 0.246,-0.513 0.25,-0.518L0.25,-1.075C0.25,-1.076 0.251,-1.078 0.255,-1.08ZM0.236,-0.436C0.236,-0.423 0.243,-0.416 0.259,-0.414C0.271,-0.417 0.277,-0.424 0.277,-0.437C0.274,-0.449 0.27,-0.455 0.264,-0.455L0.264,-0.448C0.264,-0.447 0.262,-0.445 0.259,-0.443L0.255,-0.443C0.254,-0.443 0.252,-0.445 0.25,-0.448L0.25,-0.455L0.249,-0.455C0.24,-0.45 0.236,-0.443 0.236,-0.436Z" style="fill-rule:nonzero;"/>
            </g>
        </g>
        <g transform="matrix(4.33864,0,0,4.33864,-1123.83,-1503.53)">
            <g transform="matrix(0.230487,0,0,0.230487,254.633,343.931)">
                <g transform="matrix(64,0,0,64,534.041,557.934)">
                    <path d="M0.079,0L0.079,-0.716L0.396,-0.716C0.46,-0.716 0.508,-0.709 0.542,-0.697C0.575,-0.684 0.601,-0.661 0.621,-0.628C0.641,-0.596 0.651,-0.56 0.651,-0.521C0.651,-0.47 0.634,-0.427 0.602,-0.392C0.569,-0.357 0.518,-0.335 0.449,-0.326C0.474,-0.314 0.493,-0.302 0.506,-0.29C0.534,-0.265 0.56,-0.233 0.585,-0.195L0.709,0L0.59,0L0.496,-0.149C0.468,-0.192 0.445,-0.225 0.427,-0.248C0.409,-0.27 0.393,-0.286 0.379,-0.295C0.365,-0.305 0.351,-0.311 0.336,-0.314C0.325,-0.317 0.308,-0.318 0.283,-0.318L0.173,-0.318L0.173,0L0.079,0ZM0.173,-0.4L0.377,-0.4C0.42,-0.4 0.454,-0.404 0.479,-0.413C0.503,-0.422 0.521,-0.437 0.534,-0.456C0.547,-0.476 0.553,-0.497 0.553,-0.521C0.553,-0.554 0.541,-0.582 0.516,-0.604C0.492,-0.626 0.453,-0.637 0.4,-0.637L0.173,-0.637L0.173,-0.4Z" style="fill-rule:nonzero;"/>
                </g>
                <g transform="matrix(64,0,0,64,580.259,557.934)">
                    <path d="M0.421,-0.167L0.512,-0.156C0.497,-0.103 0.471,-0.062 0.432,-0.032C0.393,-0.003 0.344,0.012 0.284,0.012C0.208,0.012 0.148,-0.012 0.103,-0.058C0.059,-0.105 0.037,-0.171 0.037,-0.255C0.037,-0.342 0.059,-0.41 0.104,-0.458C0.149,-0.506 0.207,-0.53 0.279,-0.53C0.348,-0.53 0.405,-0.507 0.449,-0.459C0.493,-0.412 0.515,-0.346 0.515,-0.26C0.515,-0.255 0.514,-0.247 0.514,-0.237L0.127,-0.237C0.131,-0.18 0.147,-0.136 0.176,-0.106C0.205,-0.076 0.241,-0.061 0.284,-0.061C0.316,-0.061 0.344,-0.069 0.367,-0.086C0.389,-0.103 0.408,-0.13 0.421,-0.167ZM0.132,-0.309L0.422,-0.309C0.418,-0.353 0.407,-0.385 0.389,-0.407C0.361,-0.441 0.324,-0.458 0.28,-0.458C0.239,-0.458 0.205,-0.444 0.178,-0.417C0.15,-0.39 0.135,-0.354 0.132,-0.309Z" style="fill-rule:nonzero;"/>
                </g>
                <g transform="matrix(64,0,0,64,615.853,557.934)">
                    <path d="M0.089,0L0.089,-0.451L0.011,-0.451L0.011,-0.519L0.089,-0.519L0.089,-0.569C0.089,-0.62 0.1,-0.66 0.123,-0.687C0.145,-0.714 0.18,-0.728 0.228,-0.728C0.26,-0.728 0.29,-0.724 0.317,-0.717L0.303,-0.643C0.286,-0.646 0.27,-0.647 0.256,-0.647C0.226,-0.647 0.205,-0.641 0.194,-0.629C0.183,-0.617 0.177,-0.591 0.177,-0.552L0.177,-0.519L0.278,-0.519L0.278,-0.451L0.177,-0.451L0.177,0L0.089,0ZM0.344,-0.615L0.344,-0.716L0.432,-0.716L0.432,-0.615L0.344,-0.615ZM0.344,0L0.344,-0.519L0.432,-0.519L0.432,0L0.344,0Z" style="fill-rule:nonzero;"/>
                </g>
                <g transform="matrix(64,0,0,64,647.853,557.934)">
                    <path d="M0.066,0L0.066,-0.716L0.154,-0.716L0.154,-0.308L0.362,-0.519L0.476,-0.519L0.278,-0.326L0.496,0L0.388,0L0.216,-0.265L0.154,-0.206L0.154,0L0.066,0Z" style="fill-rule:nonzero;"/>
                </g>
                <g transform="matrix(64,0,0,64,697.634,557.934)">
                    <path d="M0.282,0L0.004,-0.716L0.107,-0.716L0.293,-0.196C0.308,-0.154 0.32,-0.115 0.331,-0.079C0.342,-0.118 0.354,-0.157 0.369,-0.196L0.563,-0.716L0.659,-0.716L0.379,0L0.282,0Z" style="fill-rule:nonzero;"/>
                </g>
                <g transform="matrix(64,0,0,64,736.791,557.934)">
                    <path d="M0.421,-0.167L0.512,-0.156C0.497,-0.103 0.471,-0.062 0.432,-0.032C0.393,-0.003 0.344,0.012 0.284,0.012C0.208,0.012 0.148,-0.012 0.103,-0.058C0.059,-0.105 0.037,-0.171 0.037,-0.255C0.037,-0.342 0.059,-0.41 0.104,-0.458C0.149,-0.506 0.207,-0.53 0.279,-0.53C0.348,-0.53 0.405,-0.507 0.449,-0.459C0.493,-0.412 0.515,-0.346 0.515,-0.26C0.515,-0.255 0.514,-0.247 0.514,-0.237L0.127,-0.237C0.131,-0.18 0.147,-0.136 0.176,-0.106C0.205,-0.076 0.241,-0.061 0.284,-0.061C0.316,-0.061 0.344,-0.069 0.367,-0.086C0.389,-0.103 0.408,-0.13 0.421,-0.167ZM0.132,-0.309L0.422,-0.309C0.418,-0.353 0.407,-0.385 0.389,-0.407C0.361,-0.441 0.324,-0.458 0.28,-0.458C0.239,-0.458 0.205,-0.444 0.178,-0.417C0.15,-0.39 0.135,-0.354 0.132,-0.309Z" style="fill-rule:nonzero;"/>
                </g>
                <g transform="matrix(64,0,0,64,772.384,557.934)">
                    <path d="M0.031,-0.155L0.118,-0.168C0.123,-0.134 0.136,-0.107 0.158,-0.088C0.181,-0.07 0.212,-0.061 0.252,-0.061C0.292,-0.061 0.322,-0.069 0.342,-0.085C0.361,-0.102 0.371,-0.121 0.371,-0.143C0.371,-0.163 0.362,-0.179 0.345,-0.19C0.333,-0.198 0.303,-0.208 0.255,-0.22C0.191,-0.236 0.146,-0.25 0.121,-0.262C0.096,-0.274 0.078,-0.29 0.065,-0.311C0.052,-0.332 0.045,-0.355 0.045,-0.381C0.045,-0.404 0.051,-0.425 0.061,-0.445C0.072,-0.465 0.086,-0.481 0.104,-0.494C0.118,-0.504 0.137,-0.513 0.16,-0.52C0.184,-0.527 0.209,-0.53 0.236,-0.53C0.277,-0.53 0.313,-0.524 0.344,-0.513C0.374,-0.501 0.397,-0.485 0.412,-0.465C0.426,-0.445 0.436,-0.418 0.442,-0.385L0.356,-0.373C0.352,-0.4 0.341,-0.421 0.322,-0.436C0.303,-0.451 0.277,-0.458 0.243,-0.458C0.202,-0.458 0.174,-0.451 0.156,-0.438C0.139,-0.425 0.13,-0.409 0.13,-0.391C0.13,-0.38 0.134,-0.369 0.141,-0.36C0.148,-0.351 0.16,-0.343 0.175,-0.337C0.184,-0.334 0.209,-0.326 0.252,-0.314C0.315,-0.298 0.358,-0.284 0.383,-0.274C0.407,-0.263 0.426,-0.248 0.44,-0.228C0.454,-0.207 0.461,-0.182 0.461,-0.152C0.461,-0.123 0.453,-0.095 0.436,-0.07C0.419,-0.044 0.394,-0.024 0.362,-0.01C0.33,0.005 0.293,0.012 0.252,0.012C0.185,0.012 0.134,-0.002 0.098,-0.03C0.063,-0.058 0.041,-0.1 0.031,-0.155Z" style="fill-rule:nonzero;"/>
                </g>
                <g transform="matrix(64,0,0,64,804.384,557.934)">
                    <path d="M0.421,-0.167L0.512,-0.156C0.497,-0.103 0.471,-0.062 0.432,-0.032C0.393,-0.003 0.344,0.012 0.284,0.012C0.208,0.012 0.148,-0.012 0.103,-0.058C0.059,-0.105 0.037,-0.171 0.037,-0.255C0.037,-0.342 0.059,-0.41 0.104,-0.458C0.149,-0.506 0.207,-0.53 0.279,-0.53C0.348,-0.53 0.405,-0.507 0.449,-0.459C0.493,-0.412 0.515,-0.346 0.515,-0.26C0.515,-0.255 0.514,-0.247 0.514,-0.237L0.127,-0.237C0.131,-0.18 0.147,-0.136 0.176,-0.106C0.205,-0.076 0.241,-0.061 0.284,-0.061C0.316,-0.061 0.344,-0.069 0.367,-0.086C0.389,-0.103 0.408,-0.13 0.421,-0.167ZM0.132,-0.309L0.422,-0.309C0.418,-0.353 0.407,-0.385 0.389,-0.407C0.361,-0.441 0.324,-0.458 0.28,-0.458C0.239,-0.458 0.205,-0.444 0.178,-0.417C0.15,-0.39 0.135,-0.354 0.132,-0.309Z" style="fill-rule:nonzero;"/>
                </g>
                <g transform="matrix(64,0,0,64,839.978,557.934)">
                    <rect x="0.064" y="-0.716" width="0.088" height="0.716" style="fill-rule:nonzero;"/>
                </g>
                <g transform="matrix(64,0,0,64,854.197,557.934)">
                    <path d="M0.066,-0.615L0.066,-0.716L0.154,-0.716L0.154,-0.615L0.066,-0.615ZM0.066,0L0.066,-0.519L0.154,-0.519L0.154,0L0.066,0Z" style="fill-rule:nonzero;"/>
                </g>
                <g transform="matrix(64,0,0,64,886.197,557.934)">
                    <path d="M0.045,-0.23L0.134,-0.238C0.139,-0.202 0.148,-0.173 0.164,-0.15C0.179,-0.127 0.203,-0.108 0.236,-0.094C0.268,-0.08 0.305,-0.073 0.346,-0.073C0.382,-0.073 0.414,-0.078 0.441,-0.089C0.469,-0.1 0.49,-0.114 0.503,-0.133C0.517,-0.152 0.523,-0.172 0.523,-0.194C0.523,-0.217 0.517,-0.236 0.504,-0.253C0.491,-0.27 0.469,-0.284 0.439,-0.295C0.42,-0.303 0.378,-0.315 0.312,-0.33C0.246,-0.346 0.2,-0.361 0.174,-0.375C0.14,-0.393 0.114,-0.415 0.097,-0.442C0.081,-0.468 0.072,-0.498 0.072,-0.531C0.072,-0.567 0.083,-0.601 0.103,-0.632C0.124,-0.663 0.153,-0.687 0.193,-0.704C0.232,-0.72 0.276,-0.728 0.324,-0.728C0.377,-0.728 0.424,-0.719 0.465,-0.702C0.505,-0.685 0.536,-0.66 0.558,-0.627C0.58,-0.594 0.592,-0.556 0.593,-0.514L0.502,-0.507C0.498,-0.553 0.481,-0.587 0.453,-0.61C0.425,-0.633 0.383,-0.645 0.328,-0.645C0.271,-0.645 0.229,-0.634 0.203,-0.613C0.177,-0.592 0.164,-0.567 0.164,-0.537C0.164,-0.511 0.173,-0.49 0.191,-0.474C0.21,-0.457 0.257,-0.44 0.334,-0.423C0.411,-0.405 0.464,-0.39 0.493,-0.377C0.534,-0.358 0.565,-0.333 0.585,-0.304C0.605,-0.274 0.615,-0.241 0.615,-0.202C0.615,-0.164 0.604,-0.128 0.582,-0.094C0.56,-0.061 0.529,-0.035 0.488,-0.016C0.447,0.003 0.401,0.012 0.35,0.012C0.285,0.012 0.231,0.003 0.187,-0.016C0.143,-0.035 0.109,-0.063 0.084,-0.101C0.059,-0.139 0.046,-0.182 0.045,-0.23Z" style="fill-rule:nonzero;"/>
                </g>
                <g transform="matrix(64,0,0,64,928.884,557.934)">
                    <path d="M0.404,-0.19L0.491,-0.179C0.481,-0.119 0.457,-0.073 0.418,-0.039C0.379,-0.005 0.332,0.012 0.275,0.012C0.204,0.012 0.147,-0.011 0.104,-0.058C0.061,-0.104 0.039,-0.171 0.039,-0.257C0.039,-0.313 0.048,-0.362 0.067,-0.404C0.085,-0.446 0.114,-0.478 0.152,-0.499C0.19,-0.52 0.231,-0.53 0.275,-0.53C0.332,-0.53 0.378,-0.516 0.414,-0.488C0.449,-0.459 0.472,-0.419 0.482,-0.366L0.397,-0.353C0.389,-0.388 0.374,-0.414 0.354,-0.432C0.333,-0.449 0.308,-0.458 0.279,-0.458C0.235,-0.458 0.199,-0.442 0.171,-0.41C0.143,-0.379 0.129,-0.328 0.129,-0.26C0.129,-0.19 0.143,-0.139 0.169,-0.108C0.196,-0.076 0.231,-0.061 0.274,-0.061C0.308,-0.061 0.337,-0.071 0.36,-0.092C0.383,-0.113 0.398,-0.146 0.404,-0.19Z" style="fill-rule:nonzero;"/>
                </g>
                <g transform="matrix(64,0,0,64,960.884,557.934)">
                    <path d="M0.066,0L0.066,-0.716L0.154,-0.716L0.154,-0.459C0.195,-0.507 0.247,-0.53 0.309,-0.53C0.347,-0.53 0.381,-0.523 0.409,-0.508C0.438,-0.492 0.458,-0.472 0.47,-0.445C0.482,-0.418 0.488,-0.379 0.488,-0.329L0.488,0L0.4,0L0.4,-0.329C0.4,-0.373 0.391,-0.405 0.372,-0.425C0.353,-0.445 0.326,-0.455 0.291,-0.455C0.265,-0.455 0.24,-0.448 0.218,-0.434C0.195,-0.421 0.178,-0.403 0.168,-0.379C0.159,-0.356 0.154,-0.324 0.154,-0.284L0.154,0L0.066,0Z" style="fill-rule:nonzero;"/>
                </g>
                <g transform="matrix(64,0,0,64,996.478,557.934)">
                    <path d="M0.406,0L0.406,-0.076C0.365,-0.018 0.311,0.012 0.241,0.012C0.211,0.012 0.182,0.006 0.156,-0.006C0.129,-0.018 0.109,-0.032 0.096,-0.05C0.084,-0.068 0.075,-0.09 0.069,-0.115C0.066,-0.132 0.064,-0.16 0.064,-0.197L0.064,-0.519L0.152,-0.519L0.152,-0.231C0.152,-0.185 0.154,-0.154 0.157,-0.138C0.163,-0.115 0.174,-0.097 0.192,-0.084C0.21,-0.071 0.232,-0.064 0.259,-0.064C0.285,-0.064 0.31,-0.071 0.333,-0.084C0.356,-0.098 0.372,-0.116 0.382,-0.139C0.392,-0.163 0.396,-0.196 0.396,-0.241L0.396,-0.519L0.484,-0.519L0.484,0L0.406,0Z" style="fill-rule:nonzero;"/>
                </g>
                <g transform="matrix(64,0,0,64,1032.07,557.934)">
                    <rect x="0.064" y="-0.716" width="0.088" height="0.716" style="fill-rule:nonzero;"/>
                </g>
                <g transform="matrix(64,0,0,64,1046.29,557.934)">
                    <path d="M0.421,-0.167L0.512,-0.156C0.497,-0.103 0.471,-0.062 0.432,-0.032C0.393,-0.003 0.344,0.012 0.284,0.012C0.208,0.012 0.148,-0.012 0.103,-0.058C0.059,-0.105 0.037,-0.171 0.037,-0.255C0.037,-0.342 0.059,-0.41 0.104,-0.458C0.149,-0.506 0.207,-0.53 0.279,-0.53C0.348,-0.53 0.405,-0.507 0.449,-0.459C0.493,-0.412 0.515,-0.346 0.515,-0.26C0.515,-0.255 0.514,-0.247 0.514,-0.237L0.127,-0.237C0.131,-0.18 0.147,-0.136 0.176,-0.106C0.205,-0.076 0.241,-0.061 0.284,-0.061C0.316,-0.061 0.344,-0.069 0.367,-0.086C0.389,-0.103 0.408,-0.13 0.421,-0.167ZM0.132,-0.309L0.422,-0.309C0.418,-0.353 0.407,-0.385 0.389,-0.407C0.361,-0.441 0.324,-0.458 0.28,-0.458C0.239,-0.458 0.205,-0.444 0.178,-0.417C0.15,-0.39 0.135,-0.354 0.132,-0.309Z" style="fill-rule:nonzero;"/>
                </g>
            </g>
        </g>
        <g transform="matrix(4.33864,0,0,4.33864,-1123.83,-1503.53)">
            <g transform="matrix(50,0,0,50,419.699,450.785)">
                <path d="M0.128,-1.081L0.133,-1.081C0.134,-1.081 0.136,-1.079 0.139,-1.075L0.139,-0.686L0.14,-0.686C0.14,-0.692 0.146,-0.7 0.159,-0.71C0.161,-0.722 0.167,-0.728 0.176,-0.728L0.177,-0.728C0.187,-0.728 0.192,-0.721 0.194,-0.709C0.191,-0.699 0.186,-0.693 0.179,-0.693L0.174,-0.693C0.171,-0.693 0.167,-0.695 0.163,-0.699C0.149,-0.683 0.142,-0.667 0.142,-0.649L0.142,-0.646C0.147,-0.64 0.15,-0.635 0.15,-0.632L0.15,-0.627C0.15,-0.621 0.146,-0.616 0.139,-0.613L0.139,-0.61L0.143,-0.61C0.154,-0.61 0.166,-0.611 0.177,-0.612C0.197,-0.612 0.208,-0.6 0.208,-0.578C0.208,-0.507 0.213,-0.472 0.225,-0.472C0.226,-0.47 0.231,-0.469 0.239,-0.469C0.259,-0.47 0.275,-0.47 0.285,-0.47L0.287,-0.472C0.304,-0.472 0.313,-0.457 0.313,-0.429C0.314,-0.422 0.314,-0.413 0.314,-0.401C0.314,-0.396 0.31,-0.39 0.3,-0.384C0.251,-0.381 0.226,-0.377 0.226,-0.373C0.222,-0.367 0.22,-0.361 0.219,-0.353C0.226,-0.186 0.233,-0.103 0.239,-0.103C0.247,-0.09 0.261,-0.083 0.282,-0.083C0.301,-0.084 0.311,-0.084 0.313,-0.084C0.327,-0.084 0.334,-0.069 0.334,-0.039C0.334,-0.027 0.335,-0.015 0.336,-0.005C0.336,0.013 0.317,0.021 0.279,0.021C0.278,0.022 0.274,0.023 0.267,0.023L0.254,0.023C0.252,0.023 0.25,0.023 0.249,0.024L0.246,0.023C0.245,0.023 0.241,0.023 0.234,0.024C0.229,0.023 0.227,0.023 0.226,0.023C0.225,0.023 0.223,0.023 0.222,0.024C0.185,0.024 0.153,0.013 0.126,-0.011C0.112,-0.03 0.103,-0.052 0.1,-0.076C0.092,-0.257 0.086,-0.35 0.084,-0.354C0.079,-0.365 0.07,-0.37 0.059,-0.37C0.052,-0.37 0.044,-0.369 0.033,-0.367C0.012,-0.367 0.001,-0.379 0.001,-0.403C0.001,-0.415 0.001,-0.422 0,-0.424C0,-0.445 0.007,-0.456 0.02,-0.456C0.02,-0.457 0.021,-0.458 0.024,-0.458L0.026,-0.458C0.06,-0.458 0.077,-0.464 0.077,-0.478C0.077,-0.482 0.078,-0.485 0.079,-0.486L0.073,-0.584C0.073,-0.601 0.088,-0.609 0.119,-0.609L0.123,-0.609L0.123,-0.615C0.118,-0.62 0.116,-0.624 0.116,-0.627L0.116,-0.63C0.116,-0.634 0.118,-0.639 0.123,-0.645L0.123,-1.075C0.123,-1.077 0.125,-1.079 0.128,-1.081ZM0.107,-0.552C0.107,-0.538 0.116,-0.53 0.133,-0.527C0.147,-0.53 0.154,-0.539 0.154,-0.553C0.151,-0.567 0.146,-0.573 0.139,-0.573L0.139,-0.566C0.139,-0.565 0.137,-0.563 0.133,-0.56L0.128,-0.56C0.127,-0.56 0.125,-0.562 0.123,-0.566L0.123,-0.573L0.122,-0.573C0.112,-0.568 0.107,-0.561 0.107,-0.552Z" style="fill-rule:nonzero;"/>
            </g>
        </g>
        <g transform="matrix(4.33864,0,0,4.33864,-1123.83,-1503.53)">
            <g transform="matrix(50,0,0,50,436.887,450.785)">
                <path d="M0.236,-1.083L0.24,-1.083C0.241,-1.083 0.243,-1.081 0.245,-1.077L0.245,-0.559C0.252,-0.563 0.258,-0.571 0.264,-0.582C0.267,-0.585 0.27,-0.586 0.272,-0.586L0.275,-0.586C0.285,-0.585 0.29,-0.58 0.29,-0.572L0.29,-0.565C0.286,-0.558 0.282,-0.555 0.277,-0.555L0.272,-0.555C0.27,-0.555 0.266,-0.556 0.261,-0.56C0.25,-0.546 0.245,-0.535 0.245,-0.527L0.245,-0.508C0.249,-0.505 0.25,-0.501 0.25,-0.498L0.25,-0.494C0.25,-0.491 0.249,-0.487 0.245,-0.483L0.245,-0.474C0.275,-0.474 0.309,-0.462 0.348,-0.438C0.382,-0.409 0.407,-0.38 0.42,-0.351C0.429,-0.34 0.437,-0.316 0.445,-0.281L0.445,-0.278C0.445,-0.265 0.421,-0.254 0.372,-0.245C0.239,-0.21 0.165,-0.19 0.15,-0.185C0.146,-0.18 0.144,-0.174 0.144,-0.168L0.144,-0.165C0.153,-0.137 0.169,-0.118 0.189,-0.105C0.203,-0.098 0.215,-0.095 0.224,-0.095L0.233,-0.095C0.285,-0.095 0.322,-0.116 0.346,-0.159C0.354,-0.179 0.367,-0.189 0.385,-0.189C0.404,-0.196 0.421,-0.2 0.436,-0.203C0.447,-0.203 0.453,-0.197 0.453,-0.186C0.453,-0.16 0.442,-0.128 0.419,-0.091C0.392,-0.054 0.354,-0.029 0.304,-0.015C0.278,-0.005 0.248,0 0.216,0C0.182,-0.003 0.156,-0.009 0.138,-0.017C0.09,-0.04 0.054,-0.074 0.032,-0.121C0.012,-0.16 0.001,-0.203 0.001,-0.25L0.001,-0.254C0.001,-0.256 0.001,-0.258 0,-0.259C0.004,-0.303 0.018,-0.343 0.041,-0.378C0.07,-0.42 0.111,-0.449 0.165,-0.465C0.189,-0.472 0.211,-0.476 0.23,-0.476L0.23,-0.481C0.225,-0.481 0.221,-0.485 0.219,-0.494L0.219,-0.497C0.221,-0.506 0.225,-0.511 0.23,-0.511L0.23,-1.077C0.23,-1.078 0.232,-1.08 0.236,-1.083ZM0.216,-0.424C0.216,-0.412 0.224,-0.404 0.24,-0.402C0.253,-0.404 0.259,-0.412 0.259,-0.425C0.256,-0.438 0.251,-0.444 0.245,-0.444L0.245,-0.438C0.245,-0.436 0.243,-0.434 0.24,-0.432L0.236,-0.432C0.235,-0.432 0.233,-0.434 0.23,-0.438L0.23,-0.444L0.229,-0.444C0.22,-0.439 0.216,-0.432 0.216,-0.424ZM0.115,-0.285C0.115,-0.275 0.119,-0.268 0.126,-0.264L0.133,-0.264C0.144,-0.264 0.198,-0.278 0.295,-0.306C0.299,-0.31 0.302,-0.314 0.302,-0.317L0.302,-0.321C0.302,-0.335 0.288,-0.351 0.261,-0.37C0.248,-0.377 0.235,-0.381 0.221,-0.381C0.179,-0.381 0.146,-0.362 0.124,-0.325C0.118,-0.309 0.115,-0.296 0.115,-0.285Z" style="fill-rule:nonzero;"/>
            </g>
        </g>
        <g transform="matrix(4.33864,0,0,4.33864,-1123.83,-1503.53)">
            <g transform="matrix(50,0,0,50,459.787,450.785)">
                <path d="M0.193,-1.083L0.197,-1.083C0.199,-1.083 0.2,-1.081 0.203,-1.077L0.203,-0.517L0.204,-0.517C0.204,-0.526 0.218,-0.536 0.247,-0.548C0.258,-0.546 0.263,-0.541 0.263,-0.533L0.263,-0.529C0.263,-0.521 0.257,-0.516 0.246,-0.514C0.24,-0.514 0.235,-0.519 0.231,-0.528C0.212,-0.516 0.203,-0.499 0.203,-0.477L0.203,-0.474C0.208,-0.468 0.21,-0.464 0.21,-0.46L0.21,-0.457C0.21,-0.453 0.209,-0.45 0.205,-0.445L0.215,-0.445C0.306,-0.445 0.366,-0.416 0.396,-0.356C0.403,-0.34 0.406,-0.328 0.406,-0.32L0.406,-0.317C0.406,-0.306 0.4,-0.3 0.386,-0.3L0.331,-0.3C0.327,-0.3 0.322,-0.299 0.316,-0.298C0.302,-0.298 0.288,-0.312 0.274,-0.34C0.255,-0.355 0.234,-0.362 0.212,-0.362C0.169,-0.362 0.144,-0.351 0.136,-0.33L0.135,-0.32L0.135,-0.317C0.135,-0.288 0.177,-0.267 0.261,-0.254C0.306,-0.245 0.343,-0.232 0.373,-0.215C0.407,-0.191 0.424,-0.158 0.424,-0.118C0.424,-0.081 0.41,-0.047 0.383,-0.015C0.343,0.021 0.282,0.039 0.201,0.039C0.159,0.039 0.113,0.027 0.066,0.004C0.038,-0.011 0.016,-0.042 0.001,-0.088C0,-0.094 0,-0.099 0,-0.103L0,-0.105C0,-0.115 0.006,-0.12 0.019,-0.122L0.095,-0.122C0.106,-0.122 0.115,-0.114 0.12,-0.1C0.125,-0.083 0.138,-0.069 0.157,-0.058C0.175,-0.049 0.195,-0.044 0.217,-0.044C0.235,-0.044 0.254,-0.05 0.274,-0.061C0.288,-0.072 0.295,-0.087 0.295,-0.104L0.295,-0.105C0.295,-0.136 0.249,-0.159 0.155,-0.174C0.094,-0.19 0.056,-0.206 0.041,-0.222C0.018,-0.244 0.007,-0.271 0.007,-0.302C0.011,-0.336 0.017,-0.36 0.026,-0.374C0.042,-0.4 0.072,-0.42 0.116,-0.435C0.146,-0.442 0.168,-0.445 0.184,-0.445C0.18,-0.449 0.178,-0.453 0.178,-0.457L0.178,-0.459C0.18,-0.468 0.183,-0.473 0.188,-0.473L0.188,-1.077C0.188,-1.079 0.189,-1.081 0.193,-1.083ZM0.173,-0.397C0.173,-0.384 0.181,-0.376 0.197,-0.374C0.211,-0.377 0.217,-0.385 0.217,-0.398C0.214,-0.411 0.209,-0.417 0.203,-0.417L0.203,-0.411C0.203,-0.409 0.201,-0.407 0.197,-0.405L0.193,-0.405C0.192,-0.405 0.19,-0.407 0.188,-0.411L0.188,-0.417L0.186,-0.417C0.177,-0.412 0.173,-0.405 0.173,-0.397Z" style="fill-rule:nonzero;"/>
            </g>
        </g>
        <g transform="matrix(4.33864,0,0,4.33864,-1123.83,-1503.53)">
            <g transform="matrix(50,0,0,50,481.198,450.785)">
                <path d="M0.193,-1.083L0.197,-1.083C0.199,-1.083 0.2,-1.081 0.203,-1.077L0.203,-0.517L0.204,-0.517C0.204,-0.526 0.218,-0.536 0.247,-0.548C0.258,-0.546 0.263,-0.541 0.263,-0.533L0.263,-0.529C0.263,-0.521 0.257,-0.516 0.246,-0.514C0.24,-0.514 0.235,-0.519 0.231,-0.528C0.212,-0.516 0.203,-0.499 0.203,-0.477L0.203,-0.474C0.208,-0.468 0.21,-0.464 0.21,-0.46L0.21,-0.457C0.21,-0.453 0.209,-0.45 0.205,-0.445L0.215,-0.445C0.306,-0.445 0.366,-0.416 0.396,-0.356C0.403,-0.34 0.406,-0.328 0.406,-0.32L0.406,-0.317C0.406,-0.306 0.4,-0.3 0.386,-0.3L0.331,-0.3C0.327,-0.3 0.322,-0.299 0.316,-0.298C0.302,-0.298 0.288,-0.312 0.274,-0.34C0.255,-0.355 0.234,-0.362 0.212,-0.362C0.169,-0.362 0.144,-0.351 0.136,-0.33L0.135,-0.32L0.135,-0.317C0.135,-0.288 0.177,-0.267 0.261,-0.254C0.306,-0.245 0.343,-0.232 0.373,-0.215C0.407,-0.191 0.424,-0.158 0.424,-0.118C0.424,-0.081 0.41,-0.047 0.383,-0.015C0.343,0.021 0.282,0.039 0.201,0.039C0.159,0.039 0.113,0.027 0.066,0.004C0.038,-0.011 0.016,-0.042 0.001,-0.088C0,-0.094 0,-0.099 0,-0.103L0,-0.105C0,-0.115 0.006,-0.12 0.019,-0.122L0.095,-0.122C0.106,-0.122 0.115,-0.114 0.12,-0.1C0.125,-0.083 0.138,-0.069 0.157,-0.058C0.175,-0.049 0.195,-0.044 0.217,-0.044C0.235,-0.044 0.254,-0.05 0.274,-0.061C0.288,-0.072 0.295,-0.087 0.295,-0.104L0.295,-0.105C0.295,-0.136 0.249,-0.159 0.155,-0.174C0.094,-0.19 0.056,-0.206 0.041,-0.222C0.018,-0.244 0.007,-0.271 0.007,-0.302C0.011,-0.336 0.017,-0.36 0.026,-0.374C0.042,-0.4 0.072,-0.42 0.116,-0.435C0.146,-0.442 0.168,-0.445 0.184,-0.445C0.18,-0.449 0.178,-0.453 0.178,-0.457L0.178,-0.459C0.18,-0.468 0.183,-0.473 0.188,-0.473L0.188,-1.077C0.188,-1.079 0.189,-1.081 0.193,-1.083ZM0.173,-0.397C0.173,-0.384 0.181,-0.376 0.197,-0.374C0.211,-0.377 0.217,-0.385 0.217,-0.398C0.214,-0.411 0.209,-0.417 0.203,-0.417L0.203,-0.411C0.203,-0.409 0.201,-0.407 0.197,-0.405L0.193,-0.405C0.192,-0.405 0.19,-0.407 0.188,-0.411L0.188,-0.417L0.186,-0.417C0.177,-0.412 0.173,-0.405 0.173,-0.397Z" style="fill-rule:nonzero;"/>
            </g>
        </g>
        <g transform="matrix(4.33864,0,0,4.33864,-1123.83,-1503.53)">
            <g transform="matrix(50,0,0,50,502.609,450.785)">
                <path d="M0.237,-1.082L0.241,-1.082C0.242,-1.082 0.244,-1.08 0.246,-1.077L0.246,-0.511L0.248,-0.511C0.248,-0.516 0.253,-0.524 0.265,-0.534C0.267,-0.545 0.273,-0.55 0.281,-0.55L0.282,-0.55C0.291,-0.55 0.296,-0.544 0.298,-0.533C0.295,-0.523 0.29,-0.518 0.283,-0.518L0.279,-0.518C0.276,-0.518 0.272,-0.52 0.269,-0.523C0.256,-0.509 0.249,-0.493 0.249,-0.477L0.249,-0.474C0.254,-0.469 0.257,-0.464 0.257,-0.461L0.257,-0.457C0.257,-0.451 0.253,-0.446 0.246,-0.443L0.246,-0.43C0.304,-0.43 0.354,-0.411 0.396,-0.373C0.427,-0.34 0.448,-0.306 0.458,-0.272C0.466,-0.244 0.47,-0.222 0.47,-0.204C0.471,-0.188 0.471,-0.177 0.471,-0.172C0.471,-0.094 0.437,-0.033 0.367,0.012C0.331,0.031 0.305,0.041 0.289,0.041C0.281,0.044 0.263,0.047 0.235,0.049C0.132,0.049 0.06,0.002 0.02,-0.091C0.007,-0.127 0,-0.165 0,-0.205L0,-0.213C0,-0.254 0.014,-0.295 0.041,-0.337C0.073,-0.374 0.094,-0.393 0.104,-0.393C0.146,-0.418 0.188,-0.43 0.231,-0.43L0.231,-0.445C0.227,-0.449 0.225,-0.453 0.225,-0.457L0.225,-0.459C0.225,-0.463 0.227,-0.468 0.231,-0.473L0.231,-1.077C0.231,-1.078 0.233,-1.08 0.237,-1.082ZM0.217,-0.386C0.217,-0.374 0.225,-0.366 0.241,-0.364C0.254,-0.366 0.261,-0.374 0.261,-0.388C0.257,-0.4 0.253,-0.406 0.246,-0.406L0.246,-0.399C0.246,-0.398 0.244,-0.396 0.241,-0.394L0.237,-0.394C0.236,-0.394 0.234,-0.396 0.231,-0.399L0.231,-0.406L0.23,-0.406C0.221,-0.401 0.217,-0.395 0.217,-0.386ZM0.124,-0.209C0.124,-0.149 0.141,-0.101 0.176,-0.067C0.196,-0.053 0.215,-0.045 0.231,-0.045L0.248,-0.045C0.274,-0.045 0.299,-0.058 0.323,-0.084C0.339,-0.105 0.347,-0.134 0.347,-0.169C0.347,-0.249 0.322,-0.302 0.273,-0.329C0.262,-0.333 0.248,-0.335 0.231,-0.337C0.209,-0.337 0.185,-0.328 0.161,-0.312C0.136,-0.289 0.124,-0.255 0.124,-0.209Z" style="fill-rule:nonzero;"/>
            </g>
        </g>
        <g transform="matrix(4.33864,0,0,4.33864,-1123.83,-1503.53)">
            <g transform="matrix(50,0,0,50,526.462,450.785)">
                <path d="M0.086,-1.084L0.09,-1.084C0.091,-1.084 0.093,-1.083 0.095,-1.079L0.095,-0.563L0.097,-0.563C0.097,-0.569 0.102,-0.576 0.114,-0.586C0.116,-0.597 0.122,-0.602 0.13,-0.602L0.131,-0.602C0.14,-0.602 0.145,-0.596 0.147,-0.585C0.144,-0.575 0.139,-0.57 0.132,-0.57L0.128,-0.57C0.125,-0.57 0.122,-0.572 0.118,-0.576C0.105,-0.561 0.098,-0.546 0.098,-0.529L0.098,-0.526C0.103,-0.521 0.106,-0.517 0.106,-0.513L0.106,-0.509C0.106,-0.503 0.102,-0.499 0.095,-0.496L0.095,-0.493C0.132,-0.491 0.15,-0.486 0.15,-0.48C0.152,-0.474 0.152,-0.471 0.152,-0.468L0.152,-0.45C0.152,-0.439 0.155,-0.433 0.16,-0.43C0.165,-0.43 0.174,-0.436 0.186,-0.448C0.218,-0.474 0.25,-0.487 0.283,-0.487L0.294,-0.487C0.316,-0.487 0.327,-0.478 0.327,-0.459C0.324,-0.402 0.319,-0.374 0.313,-0.374C0.309,-0.372 0.306,-0.372 0.302,-0.372L0.295,-0.372C0.292,-0.372 0.282,-0.372 0.266,-0.374C0.214,-0.374 0.179,-0.355 0.162,-0.318C0.15,-0.308 0.142,-0.271 0.136,-0.21C0.129,-0.099 0.122,-0.043 0.115,-0.043C0.109,-0.04 0.103,-0.039 0.099,-0.039C0.034,-0.041 0.001,-0.048 0.001,-0.06L0,-0.068C0.023,-0.337 0.036,-0.476 0.039,-0.484C0.043,-0.492 0.051,-0.496 0.063,-0.496C0.071,-0.495 0.077,-0.495 0.081,-0.495L0.081,-0.498C0.076,-0.502 0.074,-0.506 0.074,-0.509L0.074,-0.512C0.074,-0.516 0.076,-0.52 0.081,-0.525L0.081,-1.079C0.081,-1.08 0.082,-1.082 0.086,-1.084ZM0.066,-0.439C0.066,-0.426 0.074,-0.419 0.09,-0.417C0.103,-0.419 0.11,-0.427 0.11,-0.44C0.107,-0.453 0.102,-0.459 0.095,-0.459L0.095,-0.452C0.095,-0.451 0.093,-0.449 0.09,-0.447L0.086,-0.447C0.085,-0.447 0.083,-0.449 0.081,-0.452L0.081,-0.459L0.08,-0.459C0.071,-0.454 0.066,-0.447 0.066,-0.439Z" style="fill-rule:nonzero;"/>
            </g>
        </g>
        <g transform="matrix(4.33864,0,0,4.33864,-1123.83,-1503.53)">
            <g transform="matrix(50,0,0,50,542.892,450.785)">
                <path d="M0.062,-1.08L0.066,-1.08C0.067,-1.08 0.069,-1.078 0.071,-1.074L0.071,-0.726C0.078,-0.731 0.084,-0.739 0.09,-0.75C0.094,-0.753 0.097,-0.754 0.1,-0.754L0.103,-0.754C0.112,-0.753 0.117,-0.748 0.117,-0.74L0.117,-0.733C0.114,-0.726 0.109,-0.722 0.104,-0.722L0.1,-0.722C0.096,-0.722 0.092,-0.724 0.087,-0.728C0.077,-0.714 0.071,-0.702 0.071,-0.693L0.071,-0.675C0.075,-0.671 0.077,-0.667 0.077,-0.664L0.077,-0.66C0.077,-0.656 0.075,-0.653 0.071,-0.649L0.071,-0.638L0.104,-0.638C0.122,-0.638 0.131,-0.628 0.131,-0.608L0.131,-0.557C0.131,-0.542 0.122,-0.535 0.104,-0.535L0.073,-0.535L0.073,-0.478C0.075,-0.475 0.077,-0.472 0.077,-0.469L0.077,-0.462L0.106,-0.462C0.123,-0.462 0.131,-0.453 0.131,-0.435L0.131,-0.03C0.131,-0.01 0.123,0 0.106,0L0.035,0C0.015,0 0.005,-0.009 0.005,-0.027L0.005,-0.439C0.005,-0.454 0.014,-0.462 0.033,-0.462L0.044,-0.462L0.044,-0.467C0.044,-0.472 0.047,-0.478 0.054,-0.482C0.054,-0.494 0.05,-0.5 0.042,-0.5C0.03,-0.5 0.024,-0.505 0.024,-0.515L0.024,-0.518C0.024,-0.525 0.029,-0.53 0.039,-0.532L0.042,-0.532C0.051,-0.531 0.056,-0.526 0.056,-0.518L0.056,-0.515L0.055,-0.508L0.058,-0.507L0.058,-0.535L0.032,-0.535C0.014,-0.535 0.005,-0.544 0.005,-0.562L0.005,-0.611C0.005,-0.626 0.011,-0.635 0.022,-0.638L0.056,-0.638L0.056,-0.646C0.05,-0.646 0.046,-0.651 0.044,-0.66L0.044,-0.663C0.046,-0.672 0.05,-0.677 0.056,-0.677L0.056,-1.074C0.056,-1.076 0.058,-1.077 0.062,-1.08ZM0.042,-0.588C0.045,-0.574 0.05,-0.566 0.058,-0.566L0.058,-0.576C0.058,-0.577 0.059,-0.579 0.063,-0.581L0.067,-0.581C0.069,-0.581 0.07,-0.579 0.073,-0.576L0.073,-0.567L0.074,-0.567C0.082,-0.572 0.086,-0.579 0.086,-0.589C0.083,-0.602 0.078,-0.608 0.071,-0.608L0.071,-0.602C0.071,-0.6 0.069,-0.598 0.066,-0.596L0.062,-0.596C0.06,-0.596 0.058,-0.598 0.056,-0.602L0.056,-0.608L0.055,-0.608C0.046,-0.603 0.042,-0.596 0.042,-0.588ZM0.043,-0.416C0.046,-0.401 0.054,-0.394 0.067,-0.394C0.078,-0.394 0.084,-0.401 0.087,-0.416C0.087,-0.424 0.083,-0.431 0.075,-0.436L0.073,-0.436C0.073,-0.431 0.071,-0.429 0.068,-0.429L0.063,-0.429C0.062,-0.429 0.06,-0.431 0.056,-0.436C0.047,-0.431 0.043,-0.424 0.043,-0.416Z" style="fill-rule:nonzero;"/>
            </g>
        </g>
    </g>
</svg>
